# xmcd
#
# Track frame offsets:
#	150
#	12790
#	28204
#	40300
#	50940
#	67712
#	80495
#	92628
#	105666
#	120749
#	133744
#	147107
#	158850
#	179243
#	191597
#	212940
#	226910
#	245044
#	258297
#	274376
#	292100
#	305549
#
# Disc length: 4300 seconds
#
# Revision: 3
# Processed by: cddbd v1.5.2PL0 Copyright (c) Steve Scherf et al.
# Submitted via: EasyCDDAExtractor 12.0.7.1
#
DISCID=5010ca16
DTITLE=Conway Twitty - The Conway Twitty Collection [cd3]
DYEAR=1994
DGENRE=Country
TTITLE0=I've Already Loved You In My Mind
TTITLE1=The Grandest Lady Of Them All
TTITLE2=Your Love Had Taken Me That High
TTITLE3=Boogie Grass Band
TTITLE4=Don't Take It Away
TTITLE5=I May Never Get To Heaven
TTITLE6=You Know Just What I'd Do (W,loretta Lynn)
TTITLE7=Happy Birthday Darlin'
TTITLE8=I'd Love To Lay You Down
TTITLE9=It's True Love (W,loretta Lynn)
TTITLE10=A Bridge That Just Won't Burn
TTITLE11=Lovin' What Your Lovin' Does To Me (W,loretta Lynn)
TTITLE12=Rest Your Love On Me
TTITLE13=Tight Fittin' Jeans
TTITLE14=Red Neckin' Love Makin' Night
TTITLE15=We Had It All
TTITLE16=The Clown
TTITLE17=Slow Hand
TTITLE18=The Rose
TTITLE19=Somebody's Needin' Somebody
TTITLE20=I Don't Know A Thing About Love
TTITLE21=Julia
EXTD=
EXTT0=
EXTT1=
EXTT2=
EXTT3=
EXTT4=
EXTT5=
EXTT6=
EXTT7=
EXTT8=
EXTT9=
EXTT10=
EXTT11=
EXTT12=
EXTT13=
EXTT14=
EXTT15=
EXTT16=
EXTT17=
EXTT18=
EXTT19=
EXTT20=
EXTT21=
PLAYORDER=
